<svg data-v-0dd9719b="" version="1.0" xmlns="http://www.w3.org/2000/svg" xmlns:xlink="http://www.w3.org/1999/xlink" width="100%" height="100%" viewBox="0 0 340.000000 250.000000" preserveAspectRatio="xMidYMid meet" color-interpolation-filters="sRGB" style="margin: auto;"> <rect data-v-0dd9719b="" x="0" y="0" width="100%" height="100%" fill="#ffffff" fill-opacity="1" class="background"></rect> <rect data-v-0dd9719b="" x="0" y="0" width="100%" height="100%" fill="url(#watermark)" fill-opacity="1" class="watermarklayer"></rect> <g data-v-0dd9719b="" fill="#bb2e2e" class="pmspacesvg" transform="translate(69.94499969482422,86.62799835205078)"><!----> <g><!----> <!----> <!----> <g fill-opacity="1" mask="url(#ee37f637-0fb7-4111-9f4e-832cd81ca8a0)"><g><rect data-gra="graph-name-bg" stroke-width="2" class="i-icon-bg" x="0" y="0" width="200.11000061035156" height="76.74400329589844" rx="10" ry="10"></rect> <!----> <!----> </g> <g transform="translate(10,10)"><g data-gra="path-name" fill-rule="" class="tp-name" fill="#ffffff" fill-opacity="1" transform="translate(0,0)"><g transform="scale(1)"><g><path d="M0.4-39.59L0.4-33.08 12.33-33.08 12.33 0 19.96 0 19.96-33.08 31.84-33.08 31.84-39.59ZM61.07-14.31L68.82-14.31 68.82-39.59 61.07-39.59ZM52.25 0.57C52.25 0.57 52.31-5.71 52.31-6.9 46.88-6.9 43.15-9.78 43.15-15.44L43.15-39.59 35.63-39.59 35.63-14.31C35.63-4.18 43.09 0.57 52.25 0.57ZM121.3-39.59L72.61-39.59 72.61-32.18 121.3-32.18C128.77-32.18 134.42-28.61 134.42-19.79 134.42-10.97 128.77-6.62 121.3-6.62 112.42-6.62 108.46-12.44 108.46-20.64L108.46-22.9C108.46-22.9 100.77-22.9 100.77-22.9L100.77-20.81C100.77-8.03 108.12 0.57 121.3 0.57 133.01 0.57 142.05-6.16 142.05-19.79 142.05-32.8 133.01-39.59 121.3-39.59ZM84.54-27.14L84.54 0 92.18 0 92.18-27.14ZM147.99 0L155.63 0 155.63-13.97 164.51-13.97 171.91 0 180.51 0 171.29-15.27C176.1-17.64 178.25-22.85 178.25-27.09 178.25-35.06 173.27-39.59 164.34-39.59L147.99-39.59 147.99-32.91 163.49-32.91C168.58-32.91 171.07-30.82 171.07-26.92 171.07-22.73 168.12-20.3 163.54-20.3L147.99-20.3Z" transform="translate(-0.4000000059604645, 39.59000015258789)"></path></g> <!----> <!----> <!----> <!----> <!----> <!----> <!----></g></g> <g data-gra="path-slogan" fill-rule="" class="tp-slogan" fill="#ffffff" fill-opacity="1" transform="translate(5,46.160003662109375)"><rect x="0" height="1" y="4.789999961853027" width="30.72500228881836"></rect> <rect height="1" y="4.789999961853027" width="30.72500228881836" x="139.3849983215332"></rect> <g transform="translate(33.72500228881836,0)"><g transform="scale(1)"><path d="M1.08 0L1.08-7.87L2.08-7.87L2.08-0.85L5.52-0.85L5.52 0L1.08 0ZM6.24-2.90L6.24-2.90Q6.24-3.62 6.46-4.19Q6.68-4.76 7.05-5.16Q7.42-5.56 7.88-5.77Q8.35-5.98 8.86-5.98L8.86-5.98Q9.41-5.98 9.85-5.78Q10.28-5.59 10.58-5.23Q10.87-4.87 11.03-4.37Q11.18-3.86 11.18-3.24L11.18-3.24Q11.18-2.92 11.15-2.70L11.15-2.70L7.21-2.70Q7.27-1.75 7.79-1.20Q8.32-0.65 9.16-0.65L9.16-0.65Q9.58-0.65 9.93-0.77Q10.28-0.90 10.61-1.10L10.61-1.10L10.96-0.46Q10.57-0.22 10.10-0.04Q9.64 0.14 9.04 0.14L9.04 0.14Q8.45 0.14 7.94-0.07Q7.43-0.28 7.05-0.67Q6.67-1.06 6.46-1.62Q6.24-2.18 6.24-2.90ZM7.20-3.35L10.32-3.35Q10.32-4.25 9.94-4.72Q9.56-5.20 8.88-5.20L8.88-5.20Q8.57-5.20 8.29-5.07Q8.00-4.94 7.78-4.71Q7.55-4.48 7.40-4.13Q7.25-3.79 7.20-3.35L7.20-3.35ZM12.17-1.51L12.17-1.51Q12.17-2.47 13.03-2.98Q13.88-3.49 15.76-3.70L15.76-3.70Q15.76-3.97 15.70-4.24Q15.65-4.50 15.51-4.70Q15.37-4.91 15.14-5.03Q14.92-5.16 14.56-5.16L14.56-5.16Q14.04-5.16 13.60-4.97Q13.16-4.78 12.82-4.54L12.82-4.54L12.42-5.22Q12.83-5.48 13.42-5.73Q14.00-5.98 14.71-5.98L14.71-5.98Q15.78-5.98 16.26-5.32Q16.74-4.67 16.74-3.58L16.74-3.58L16.74 0L15.92 0L15.84-0.70L15.82-0.70Q15.40-0.35 14.91-0.10Q14.42 0.14 13.88 0.14L13.88 0.14Q13.14 0.14 12.65-0.29Q12.17-0.72 12.17-1.51ZM13.14-1.58L13.14-1.58Q13.14-1.08 13.43-0.86Q13.73-0.65 14.16-0.65L14.16-0.65Q14.58-0.65 14.96-0.85Q15.34-1.04 15.76-1.43L15.76-1.43L15.76-3.05Q15.02-2.95 14.52-2.82Q14.02-2.69 13.71-2.51Q13.40-2.33 13.27-2.09Q13.14-1.86 13.14-1.58ZM18.60 0L18.60-5.83L19.42-5.83L19.50-4.78L19.54-4.78Q19.84-5.33 20.26-5.65Q20.69-5.98 21.19-5.98L21.19-5.98Q21.54-5.98 21.82-5.86L21.82-5.86L21.62-4.99Q21.48-5.04 21.36-5.06Q21.24-5.09 21.06-5.09L21.06-5.09Q20.69-5.09 20.29-4.79Q19.88-4.49 19.58-3.74L19.58-3.74L19.58 0L18.60 0ZM22.76 0L22.76-5.83L23.58-5.83L23.66-4.99L23.70-4.99Q24.12-5.41 24.58-5.69Q25.04-5.98 25.66-5.98L25.66-5.98Q26.58-5.98 27.01-5.40Q27.43-4.82 27.43-3.70L27.43-3.70L27.43 0L26.45 0L26.45-3.56Q26.45-4.39 26.18-4.76Q25.92-5.12 25.34-5.12L25.34-5.12Q24.89-5.12 24.54-4.90Q24.19-4.67 23.75-4.22L23.75-4.22L23.75 0L22.76 0ZM29.15 2.04L28.91 1.46Q29.41 1.24 29.70 0.86Q29.99 0.49 29.99 0L29.99 0Q29.95 0.01 29.87 0.01L29.87 0.01Q29.58 0.01 29.37-0.16Q29.16-0.34 29.16-0.67L29.16-0.67Q29.16-1.00 29.38-1.18Q29.59-1.37 29.89-1.37L29.89-1.37Q30.28-1.37 30.50-1.06Q30.72-0.74 30.72-0.20L30.72-0.20Q30.72 0.58 30.30 1.15Q29.88 1.73 29.15 2.04L29.15 2.04ZM34.38-3.94L34.38-3.94Q34.38-4.88 34.65-5.64Q34.92-6.40 35.41-6.92Q35.89-7.45 36.55-7.73Q37.21-8.02 38.00-8.02L38.00-8.02Q38.82-8.02 39.37-7.71Q39.91-7.40 40.26-7.04L40.26-7.04L39.70-6.41Q39.40-6.72 39.01-6.93Q38.62-7.14 38.02-7.14L38.02-7.14Q37.42-7.14 36.94-6.92Q36.46-6.70 36.12-6.28Q35.78-5.87 35.60-5.28Q35.41-4.69 35.41-3.96L35.41-3.96Q35.41-3.22 35.59-2.62Q35.76-2.03 36.09-1.61Q36.42-1.19 36.91-0.96Q37.39-0.73 38.03-0.73L38.03-0.73Q38.45-0.73 38.83-0.86Q39.20-0.98 39.44-1.20L39.44-1.20L39.44-3.25L37.78-3.25L37.78-4.08L40.36-4.08L40.36-0.77Q39.97-0.37 39.34-0.11Q38.71 0.14 37.92 0.14L37.92 0.14Q37.14 0.14 36.49-0.13Q35.84-0.41 35.38-0.93Q34.91-1.45 34.64-2.21Q34.38-2.98 34.38-3.94ZM42.14 0L42.14-5.83L42.96-5.83L43.04-4.78L43.08-4.78Q43.38-5.33 43.81-5.65Q44.23-5.98 44.74-5.98L44.74-5.98Q45.08-5.98 45.36-5.86L45.36-5.86L45.17-4.99Q45.02-5.04 44.90-5.06Q44.78-5.09 44.60-5.09L44.60-5.09Q44.23-5.09 43.83-4.79Q43.43-4.49 43.13-3.74L43.13-3.74L43.13 0L42.14 0ZM45.76-2.90L45.76-2.90Q45.76-3.64 45.98-4.21Q46.20-4.78 46.57-5.17Q46.94-5.57 47.43-5.77Q47.92-5.98 48.46-5.98L48.46-5.98Q49.00-5.98 49.48-5.77Q49.97-5.57 50.34-5.17Q50.71-4.78 50.93-4.21Q51.16-3.64 51.16-2.90L51.16-2.90Q51.16-2.18 50.93-1.61Q50.71-1.04 50.34-0.65Q49.97-0.26 49.48-0.06Q49.00 0.14 48.46 0.14L48.46 0.14Q47.92 0.14 47.43-0.06Q46.94-0.26 46.57-0.65Q46.20-1.04 45.98-1.61Q45.76-2.18 45.76-2.90ZM46.78-2.90L46.78-2.90Q46.78-2.40 46.90-1.99Q47.02-1.58 47.24-1.29Q47.46-1.00 47.77-0.83Q48.08-0.67 48.46-0.67L48.46-0.67Q48.83-0.67 49.14-0.83Q49.45-1.00 49.67-1.29Q49.90-1.58 50.02-1.99Q50.14-2.40 50.14-2.90L50.14-2.90Q50.14-3.41 50.02-3.82Q49.90-4.24 49.67-4.54Q49.45-4.84 49.14-5.00Q48.83-5.16 48.46-5.16L48.46-5.16Q48.08-5.16 47.77-5.00Q47.46-4.84 47.24-4.54Q47.02-4.24 46.90-3.82Q46.78-3.41 46.78-2.90ZM53.57 0L51.95-5.83L52.96-5.83L53.82-2.46Q53.92-2.04 54-1.64Q54.08-1.25 54.17-0.84L54.17-0.84L54.22-0.84Q54.31-1.25 54.41-1.65Q54.50-2.05 54.61-2.46L54.61-2.46L55.51-5.83L56.47-5.83L57.38-2.46Q57.49-2.04 57.59-1.64Q57.70-1.25 57.79-0.84L57.79-0.84L57.84-0.84Q57.94-1.25 58.02-1.64Q58.10-2.04 58.20-2.46L58.20-2.46L59.05-5.83L59.99-5.83L58.43 0L57.23 0L56.39-3.13Q56.28-3.55 56.19-3.96Q56.10-4.37 55.99-4.81L55.99-4.81L55.94-4.81Q55.85-4.37 55.75-3.95Q55.66-3.54 55.54-3.12L55.54-3.12L54.72 0L53.57 0ZM60.59 2.04L60.35 1.46Q60.85 1.24 61.14 0.86Q61.43 0.49 61.43 0L61.43 0Q61.39 0.01 61.31 0.01L61.31 0.01Q61.02 0.01 60.81-0.16Q60.60-0.34 60.60-0.67L60.60-0.67Q60.60-1.00 60.82-1.18Q61.03-1.37 61.33-1.37L61.33-1.37Q61.72-1.37 61.94-1.06Q62.16-0.74 62.16-0.20L62.16-0.20Q62.16 0.58 61.74 1.15Q61.32 1.73 60.59 2.04L60.59 2.04ZM67.26-3.20L69.62-3.20L69.25-4.40Q69.04-5.06 68.84-5.72Q68.65-6.37 68.46-7.06L68.46-7.06L68.41-7.06Q68.23-6.37 68.04-5.72Q67.85-5.06 67.63-4.40L67.63-4.40L67.26-3.20ZM70.62 0L69.88-2.40L67.01-2.40L66.25 0L65.23 0L67.90-7.87L69.02-7.87L71.69 0L70.62 0ZM72.28-2.90L72.28-2.90Q72.28-3.64 72.50-4.21Q72.73-4.78 73.12-5.17Q73.50-5.57 74.01-5.77Q74.52-5.98 75.08-5.98L75.08-5.98Q75.66-5.98 76.07-5.77Q76.49-5.56 76.79-5.28L76.79-5.28L76.30-4.64Q76.03-4.87 75.75-5.02Q75.47-5.16 75.12-5.16L75.12-5.16Q74.72-5.16 74.39-5.00Q74.05-4.84 73.81-4.54Q73.57-4.24 73.43-3.82Q73.30-3.41 73.30-2.90L73.30-2.90Q73.30-2.40 73.43-1.99Q73.56-1.58 73.79-1.29Q74.03-1.00 74.36-0.83Q74.70-0.67 75.10-0.67L75.10-0.67Q75.52-0.67 75.86-0.85Q76.20-1.02 76.46-1.26L76.46-1.26L76.91-0.61Q76.51-0.26 76.03-0.06Q75.54 0.14 75.01 0.14L75.01 0.14Q74.44 0.14 73.93-0.06Q73.43-0.26 73.06-0.65Q72.70-1.04 72.49-1.61Q72.28-2.18 72.28-2.90ZM78.18 0L78.18-8.54L79.16-8.54L79.16-6.22L79.13-5.02Q79.55-5.41 80.00-5.69Q80.46-5.98 81.07-5.98L81.07-5.98Q82.00-5.98 82.42-5.40Q82.85-4.82 82.85-3.70L82.85-3.70L82.85 0L81.86 0L81.86-3.56Q81.86-4.39 81.60-4.76Q81.34-5.12 80.76-5.12L80.76-5.12Q80.30-5.12 79.96-4.90Q79.61-4.67 79.16-4.22L79.16-4.22L79.16 0L78.18 0ZM85.21-7.03L85.21-7.03Q84.92-7.03 84.73-7.21Q84.53-7.39 84.53-7.67L84.53-7.67Q84.53-7.96 84.73-8.13Q84.92-8.30 85.21-8.30L85.21-8.30Q85.50-8.30 85.70-8.13Q85.90-7.96 85.90-7.67L85.90-7.67Q85.90-7.39 85.70-7.21Q85.50-7.03 85.21-7.03ZM84.71 0L84.71-5.83L85.69-5.83L85.69 0L84.71 0ZM87.23-2.90L87.23-2.90Q87.23-3.62 87.45-4.19Q87.67-4.76 88.04-5.16Q88.40-5.56 88.87-5.77Q89.34-5.98 89.84-5.98L89.84-5.98Q90.40-5.98 90.83-5.78Q91.27-5.59 91.57-5.23Q91.86-4.87 92.02-4.37Q92.17-3.86 92.17-3.24L92.17-3.24Q92.17-2.92 92.14-2.70L92.14-2.70L88.20-2.70Q88.26-1.75 88.78-1.20Q89.30-0.65 90.14-0.65L90.14-0.65Q90.56-0.65 90.92-0.77Q91.27-0.90 91.60-1.10L91.60-1.10L91.94-0.46Q91.56-0.22 91.09-0.04Q90.62 0.14 90.02 0.14L90.02 0.14Q89.44 0.14 88.93-0.07Q88.42-0.28 88.04-0.67Q87.66-1.06 87.44-1.62Q87.23-2.18 87.23-2.90ZM88.19-3.35L91.31-3.35Q91.31-4.25 90.93-4.72Q90.55-5.20 89.87-5.20L89.87-5.20Q89.56-5.20 89.27-5.07Q88.99-4.94 88.76-4.71Q88.54-4.48 88.39-4.13Q88.24-3.79 88.19-3.35L88.19-3.35ZM94.93 0L92.83-5.83L93.85-5.83L94.96-2.52Q95.09-2.09 95.23-1.66Q95.36-1.22 95.50-0.80L95.50-0.80L95.54-0.80Q95.68-1.22 95.81-1.66Q95.94-2.09 96.07-2.52L96.07-2.52L97.18-5.83L98.15-5.83L96.08 0L94.93 0ZM98.80-2.90L98.80-2.90Q98.80-3.62 99.02-4.19Q99.24-4.76 99.61-5.16Q99.97-5.56 100.44-5.77Q100.91-5.98 101.41-5.98L101.41-5.98Q101.96-5.98 102.40-5.78Q102.84-5.59 103.13-5.23Q103.43-4.87 103.58-4.37Q103.74-3.86 103.74-3.24L103.74-3.24Q103.74-2.92 103.70-2.70L103.70-2.70L99.77-2.70Q99.83-1.75 100.35-1.20Q100.87-0.65 101.71-0.65L101.71-0.65Q102.13-0.65 102.49-0.77Q102.84-0.90 103.16-1.10L103.16-1.10L103.51-0.46Q103.13-0.22 102.66-0.04Q102.19 0.14 101.59 0.14L101.59 0.14Q101.00 0.14 100.49-0.07Q99.98-0.28 99.61-0.67Q99.23-1.06 99.01-1.62Q98.80-2.18 98.80-2.90ZM99.76-3.35L102.88-3.35Q102.88-4.25 102.50-4.72Q102.12-5.20 101.44-5.20L101.44-5.20Q101.12-5.20 100.84-5.07Q100.56-4.94 100.33-4.71Q100.10-4.48 99.95-4.13Q99.80-3.79 99.76-3.35L99.76-3.35Z" transform="translate(-1.08, 8.544)"></path></g></g></g></g></g> <!----></g></g><defs v-gra="od"></defs><mask id="ee37f637-0fb7-4111-9f4e-832cd81ca8a0"><g fill="white"><rect data-gra="graph-name-bg" stroke-width="2" class="i-icon-bg" x="0" y="0" width="200.11000061035156" height="76.74400329589844" rx="10" ry="10"></rect>   </g> <g transform="translate(10,10)" fill="black"><g data-gra="path-name" fill-rule="" class="tp-name" fill-opacity="1" transform="translate(0,0)"><g transform="scale(1)"><g><path d="M0.4-39.59L0.4-33.08 12.33-33.08 12.33 0 19.96 0 19.96-33.08 31.84-33.08 31.84-39.59ZM61.07-14.31L68.82-14.31 68.82-39.59 61.07-39.59ZM52.25 0.57C52.25 0.57 52.31-5.71 52.31-6.9 46.88-6.9 43.15-9.78 43.15-15.44L43.15-39.59 35.63-39.59 35.63-14.31C35.63-4.18 43.09 0.57 52.25 0.57ZM121.3-39.59L72.61-39.59 72.61-32.18 121.3-32.18C128.77-32.18 134.42-28.61 134.42-19.79 134.42-10.97 128.77-6.62 121.3-6.62 112.42-6.62 108.46-12.44 108.46-20.64L108.46-22.9C108.46-22.9 100.77-22.9 100.77-22.9L100.77-20.81C100.77-8.03 108.12 0.57 121.3 0.57 133.01 0.57 142.05-6.16 142.05-19.79 142.05-32.8 133.01-39.59 121.3-39.59ZM84.54-27.14L84.54 0 92.18 0 92.18-27.14ZM147.99 0L155.63 0 155.63-13.97 164.51-13.97 171.91 0 180.51 0 171.29-15.27C176.1-17.64 178.25-22.85 178.25-27.09 178.25-35.06 173.27-39.59 164.34-39.59L147.99-39.59 147.99-32.91 163.49-32.91C168.58-32.91 171.07-30.82 171.07-26.92 171.07-22.73 168.12-20.3 163.54-20.3L147.99-20.3Z" transform="translate(-0.4000000059604645, 39.59000015258789)"></path></g>       </g></g> <g data-gra="path-slogan" fill-rule="" class="tp-slogan" fill-opacity="1" transform="translate(5,46.160003662109375)"><rect x="0" height="1" y="4.789999961853027" width="30.72500228881836"></rect> <rect height="1" y="4.789999961853027" width="30.72500228881836" x="139.3849983215332"></rect> <g transform="translate(33.72500228881836,0)"><g transform="scale(1)"><path d="M1.08 0L1.08-7.87L2.08-7.87L2.08-0.85L5.52-0.85L5.52 0L1.08 0ZM6.24-2.90L6.24-2.90Q6.24-3.62 6.46-4.19Q6.68-4.76 7.05-5.16Q7.42-5.56 7.88-5.77Q8.35-5.98 8.86-5.98L8.86-5.98Q9.41-5.98 9.85-5.78Q10.28-5.59 10.58-5.23Q10.87-4.87 11.03-4.37Q11.18-3.86 11.18-3.24L11.18-3.24Q11.18-2.92 11.15-2.70L11.15-2.70L7.21-2.70Q7.27-1.75 7.79-1.20Q8.32-0.65 9.16-0.65L9.16-0.65Q9.58-0.65 9.93-0.77Q10.28-0.90 10.61-1.10L10.61-1.10L10.96-0.46Q10.57-0.22 10.10-0.04Q9.64 0.14 9.04 0.14L9.04 0.14Q8.45 0.14 7.94-0.07Q7.43-0.28 7.05-0.67Q6.67-1.06 6.46-1.62Q6.24-2.18 6.24-2.90ZM7.20-3.35L10.32-3.35Q10.32-4.25 9.94-4.72Q9.56-5.20 8.88-5.20L8.88-5.20Q8.57-5.20 8.29-5.07Q8.00-4.94 7.78-4.71Q7.55-4.48 7.40-4.13Q7.25-3.79 7.20-3.35L7.20-3.35ZM12.17-1.51L12.17-1.51Q12.17-2.47 13.03-2.98Q13.88-3.49 15.76-3.70L15.76-3.70Q15.76-3.97 15.70-4.24Q15.65-4.50 15.51-4.70Q15.37-4.91 15.14-5.03Q14.92-5.16 14.56-5.16L14.56-5.16Q14.04-5.16 13.60-4.97Q13.16-4.78 12.82-4.54L12.82-4.54L12.42-5.22Q12.83-5.48 13.42-5.73Q14.00-5.98 14.71-5.98L14.71-5.98Q15.78-5.98 16.26-5.32Q16.74-4.67 16.74-3.58L16.74-3.58L16.74 0L15.92 0L15.84-0.70L15.82-0.70Q15.40-0.35 14.91-0.10Q14.42 0.14 13.88 0.14L13.88 0.14Q13.14 0.14 12.65-0.29Q12.17-0.72 12.17-1.51ZM13.14-1.58L13.14-1.58Q13.14-1.08 13.43-0.86Q13.73-0.65 14.16-0.65L14.16-0.65Q14.58-0.65 14.96-0.85Q15.34-1.04 15.76-1.43L15.76-1.43L15.76-3.05Q15.02-2.95 14.52-2.82Q14.02-2.69 13.71-2.51Q13.40-2.33 13.27-2.09Q13.14-1.86 13.14-1.58ZM18.60 0L18.60-5.83L19.42-5.83L19.50-4.78L19.54-4.78Q19.84-5.33 20.26-5.65Q20.69-5.98 21.19-5.98L21.19-5.98Q21.54-5.98 21.82-5.86L21.82-5.86L21.62-4.99Q21.48-5.04 21.36-5.06Q21.24-5.09 21.06-5.09L21.06-5.09Q20.69-5.09 20.29-4.79Q19.88-4.49 19.58-3.74L19.58-3.74L19.58 0L18.60 0ZM22.76 0L22.76-5.83L23.58-5.83L23.66-4.99L23.70-4.99Q24.12-5.41 24.58-5.69Q25.04-5.98 25.66-5.98L25.66-5.98Q26.58-5.98 27.01-5.40Q27.43-4.82 27.43-3.70L27.43-3.70L27.43 0L26.45 0L26.45-3.56Q26.45-4.39 26.18-4.76Q25.92-5.12 25.34-5.12L25.34-5.12Q24.89-5.12 24.54-4.90Q24.19-4.67 23.75-4.22L23.75-4.22L23.75 0L22.76 0ZM29.15 2.04L28.91 1.46Q29.41 1.24 29.70 0.86Q29.99 0.49 29.99 0L29.99 0Q29.95 0.01 29.87 0.01L29.87 0.01Q29.58 0.01 29.37-0.16Q29.16-0.34 29.16-0.67L29.16-0.67Q29.16-1.00 29.38-1.18Q29.59-1.37 29.89-1.37L29.89-1.37Q30.28-1.37 30.50-1.06Q30.72-0.74 30.72-0.20L30.72-0.20Q30.72 0.58 30.30 1.15Q29.88 1.73 29.15 2.04L29.15 2.04ZM34.38-3.94L34.38-3.94Q34.38-4.88 34.65-5.64Q34.92-6.40 35.41-6.92Q35.89-7.45 36.55-7.73Q37.21-8.02 38.00-8.02L38.00-8.02Q38.82-8.02 39.37-7.71Q39.91-7.40 40.26-7.04L40.26-7.04L39.70-6.41Q39.40-6.72 39.01-6.93Q38.62-7.14 38.02-7.14L38.02-7.14Q37.42-7.14 36.94-6.92Q36.46-6.70 36.12-6.28Q35.78-5.87 35.60-5.28Q35.41-4.69 35.41-3.96L35.41-3.96Q35.41-3.22 35.59-2.62Q35.76-2.03 36.09-1.61Q36.42-1.19 36.91-0.96Q37.39-0.73 38.03-0.73L38.03-0.73Q38.45-0.73 38.83-0.86Q39.20-0.98 39.44-1.20L39.44-1.20L39.44-3.25L37.78-3.25L37.78-4.08L40.36-4.08L40.36-0.77Q39.97-0.37 39.34-0.11Q38.71 0.14 37.92 0.14L37.92 0.14Q37.14 0.14 36.49-0.13Q35.84-0.41 35.38-0.93Q34.91-1.45 34.64-2.21Q34.38-2.98 34.38-3.94ZM42.14 0L42.14-5.83L42.96-5.83L43.04-4.78L43.08-4.78Q43.38-5.33 43.81-5.65Q44.23-5.98 44.74-5.98L44.74-5.98Q45.08-5.98 45.36-5.86L45.36-5.86L45.17-4.99Q45.02-5.04 44.90-5.06Q44.78-5.09 44.60-5.09L44.60-5.09Q44.23-5.09 43.83-4.79Q43.43-4.49 43.13-3.74L43.13-3.74L43.13 0L42.14 0ZM45.76-2.90L45.76-2.90Q45.76-3.64 45.98-4.21Q46.20-4.78 46.57-5.17Q46.94-5.57 47.43-5.77Q47.92-5.98 48.46-5.98L48.46-5.98Q49.00-5.98 49.48-5.77Q49.97-5.57 50.34-5.17Q50.71-4.78 50.93-4.21Q51.16-3.64 51.16-2.90L51.16-2.90Q51.16-2.18 50.93-1.61Q50.71-1.04 50.34-0.65Q49.97-0.26 49.48-0.06Q49.00 0.14 48.46 0.14L48.46 0.14Q47.92 0.14 47.43-0.06Q46.94-0.26 46.57-0.65Q46.20-1.04 45.98-1.61Q45.76-2.18 45.76-2.90ZM46.78-2.90L46.78-2.90Q46.78-2.40 46.90-1.99Q47.02-1.58 47.24-1.29Q47.46-1.00 47.77-0.83Q48.08-0.67 48.46-0.67L48.46-0.67Q48.83-0.67 49.14-0.83Q49.45-1.00 49.67-1.29Q49.90-1.58 50.02-1.99Q50.14-2.40 50.14-2.90L50.14-2.90Q50.14-3.41 50.02-3.82Q49.90-4.24 49.67-4.54Q49.45-4.84 49.14-5.00Q48.83-5.16 48.46-5.16L48.46-5.16Q48.08-5.16 47.77-5.00Q47.46-4.84 47.24-4.54Q47.02-4.24 46.90-3.82Q46.78-3.41 46.78-2.90ZM53.57 0L51.95-5.83L52.96-5.83L53.82-2.46Q53.92-2.04 54-1.64Q54.08-1.25 54.17-0.84L54.17-0.84L54.22-0.84Q54.31-1.25 54.41-1.65Q54.50-2.05 54.61-2.46L54.61-2.46L55.51-5.83L56.47-5.83L57.38-2.46Q57.49-2.04 57.59-1.64Q57.70-1.25 57.79-0.84L57.79-0.84L57.84-0.84Q57.94-1.25 58.02-1.64Q58.10-2.04 58.20-2.46L58.20-2.46L59.05-5.83L59.99-5.83L58.43 0L57.23 0L56.39-3.13Q56.28-3.55 56.19-3.96Q56.10-4.37 55.99-4.81L55.99-4.81L55.94-4.81Q55.85-4.37 55.75-3.95Q55.66-3.54 55.54-3.12L55.54-3.12L54.72 0L53.57 0ZM60.59 2.04L60.35 1.46Q60.85 1.24 61.14 0.86Q61.43 0.49 61.43 0L61.43 0Q61.39 0.01 61.31 0.01L61.31 0.01Q61.02 0.01 60.81-0.16Q60.60-0.34 60.60-0.67L60.60-0.67Q60.60-1.00 60.82-1.18Q61.03-1.37 61.33-1.37L61.33-1.37Q61.72-1.37 61.94-1.06Q62.16-0.74 62.16-0.20L62.16-0.20Q62.16 0.58 61.74 1.15Q61.32 1.73 60.59 2.04L60.59 2.04ZM67.26-3.20L69.62-3.20L69.25-4.40Q69.04-5.06 68.84-5.72Q68.65-6.37 68.46-7.06L68.46-7.06L68.41-7.06Q68.23-6.37 68.04-5.72Q67.85-5.06 67.63-4.40L67.63-4.40L67.26-3.20ZM70.62 0L69.88-2.40L67.01-2.40L66.25 0L65.23 0L67.90-7.87L69.02-7.87L71.69 0L70.62 0ZM72.28-2.90L72.28-2.90Q72.28-3.64 72.50-4.21Q72.73-4.78 73.12-5.17Q73.50-5.57 74.01-5.77Q74.52-5.98 75.08-5.98L75.08-5.98Q75.66-5.98 76.07-5.77Q76.49-5.56 76.79-5.28L76.79-5.28L76.30-4.64Q76.03-4.87 75.75-5.02Q75.47-5.16 75.12-5.16L75.12-5.16Q74.72-5.16 74.39-5.00Q74.05-4.84 73.81-4.54Q73.57-4.24 73.43-3.82Q73.30-3.41 73.30-2.90L73.30-2.90Q73.30-2.40 73.43-1.99Q73.56-1.58 73.79-1.29Q74.03-1.00 74.36-0.83Q74.70-0.67 75.10-0.67L75.10-0.67Q75.52-0.67 75.86-0.85Q76.20-1.02 76.46-1.26L76.46-1.26L76.91-0.61Q76.51-0.26 76.03-0.06Q75.54 0.14 75.01 0.14L75.01 0.14Q74.44 0.14 73.93-0.06Q73.43-0.26 73.06-0.65Q72.70-1.04 72.49-1.61Q72.28-2.18 72.28-2.90ZM78.18 0L78.18-8.54L79.16-8.54L79.16-6.22L79.13-5.02Q79.55-5.41 80.00-5.69Q80.46-5.98 81.07-5.98L81.07-5.98Q82.00-5.98 82.42-5.40Q82.85-4.82 82.85-3.70L82.85-3.70L82.85 0L81.86 0L81.86-3.56Q81.86-4.39 81.60-4.76Q81.34-5.12 80.76-5.12L80.76-5.12Q80.30-5.12 79.96-4.90Q79.61-4.67 79.16-4.22L79.16-4.22L79.16 0L78.18 0ZM85.21-7.03L85.21-7.03Q84.92-7.03 84.73-7.21Q84.53-7.39 84.53-7.67L84.53-7.67Q84.53-7.96 84.73-8.13Q84.92-8.30 85.21-8.30L85.21-8.30Q85.50-8.30 85.70-8.13Q85.90-7.96 85.90-7.67L85.90-7.67Q85.90-7.39 85.70-7.21Q85.50-7.03 85.21-7.03ZM84.71 0L84.71-5.83L85.69-5.83L85.69 0L84.71 0ZM87.23-2.90L87.23-2.90Q87.23-3.62 87.45-4.19Q87.67-4.76 88.04-5.16Q88.40-5.56 88.87-5.77Q89.34-5.98 89.84-5.98L89.84-5.98Q90.40-5.98 90.83-5.78Q91.27-5.59 91.57-5.23Q91.86-4.87 92.02-4.37Q92.17-3.86 92.17-3.24L92.17-3.24Q92.17-2.92 92.14-2.70L92.14-2.70L88.20-2.70Q88.26-1.75 88.78-1.20Q89.30-0.65 90.14-0.65L90.14-0.65Q90.56-0.65 90.92-0.77Q91.27-0.90 91.60-1.10L91.60-1.10L91.94-0.46Q91.56-0.22 91.09-0.04Q90.62 0.14 90.02 0.14L90.02 0.14Q89.44 0.14 88.93-0.07Q88.42-0.28 88.04-0.67Q87.66-1.06 87.44-1.62Q87.23-2.18 87.23-2.90ZM88.19-3.35L91.31-3.35Q91.31-4.25 90.93-4.72Q90.55-5.20 89.87-5.20L89.87-5.20Q89.56-5.20 89.27-5.07Q88.99-4.94 88.76-4.71Q88.54-4.48 88.39-4.13Q88.24-3.79 88.19-3.35L88.19-3.35ZM94.93 0L92.83-5.83L93.85-5.83L94.96-2.52Q95.09-2.09 95.23-1.66Q95.36-1.22 95.50-0.80L95.50-0.80L95.54-0.80Q95.68-1.22 95.81-1.66Q95.94-2.09 96.07-2.52L96.07-2.52L97.18-5.83L98.15-5.83L96.08 0L94.93 0ZM98.80-2.90L98.80-2.90Q98.80-3.62 99.02-4.19Q99.24-4.76 99.61-5.16Q99.97-5.56 100.44-5.77Q100.91-5.98 101.41-5.98L101.41-5.98Q101.96-5.98 102.40-5.78Q102.84-5.59 103.13-5.23Q103.43-4.87 103.58-4.37Q103.74-3.86 103.74-3.24L103.74-3.24Q103.74-2.92 103.70-2.70L103.70-2.70L99.77-2.70Q99.83-1.75 100.35-1.20Q100.87-0.65 101.71-0.65L101.71-0.65Q102.13-0.65 102.49-0.77Q102.84-0.90 103.16-1.10L103.16-1.10L103.51-0.46Q103.13-0.22 102.66-0.04Q102.19 0.14 101.59 0.14L101.59 0.14Q101.00 0.14 100.49-0.07Q99.98-0.28 99.61-0.67Q99.23-1.06 99.01-1.62Q98.80-2.18 98.80-2.90ZM99.76-3.35L102.88-3.35Q102.88-4.25 102.50-4.72Q102.12-5.20 101.44-5.20L101.44-5.20Q101.12-5.20 100.84-5.07Q100.56-4.94 100.33-4.71Q100.10-4.48 99.95-4.13Q99.80-3.79 99.76-3.35L99.76-3.35Z" transform="translate(-1.08, 8.544)"></path></g></g></g></g></mask></svg>